<?xml version="1.0" encoding="UTF-8"?>
<svg id="Capa_2" data-name="Capa 2" xmlns="http://www.w3.org/2000/svg" viewBox="0 0 106.69 213.87">
  <defs>
    <style>
      .cls-1 {
        stroke: #f4ba33;
        stroke-miterlimit: 10;
        stroke-width: 2px;
      }

      .cls-1, .cls-2 {
        fill: #f4ba33;
      }
    </style>
  </defs>
  <g id="Capa_1-2" data-name="Capa 1">
    <g>
      <path class="cls-1" d="M99.88,199.54c-2.36,6.47-8.15,11.82-14.98,12.77-12.24,1.7-25.15-.59-36.11-6.15l-2.39-1.51c-5.96-4.7-7.56-8.78-6.57-16.47-17.16.54-25.68-6.37-29.67-22.56-2.69-10.91-4.74-24.83,2.33-34.35-15.93-12.44-14.72-44.15,0-57.39,1.44-1.3,4.71-2.39,5.22-3.25.58-.97,1.17-9.51,1.86-12.25,1.64-6.57,4.36-12.39,10.33-16.02,1.72-1.04,6.76-2.6,6.97-2.91.33-.49.11-4.9.84-7.16,1-3.09,7.72-12.52,10.09-15.31,10.92-12.85,27.74-21.51,43.92-11.88,14.76,8.78,17.44,39.72,5.55,51.87,5.61,6.16,6.57,18.87,7.47,27.3,1.36,12.78,3,27.91-9.37,35.72,3.06,2.29,3.89,4.71,4.95,8.21,2.12,6.96,4.75,20.38,2.11,27.08-.81,2.06-3.99,4.5-4.04,5.14-.05.62,3.33,5.33,4.01,7.07,3.88,9.95-.07,22.08-2.55,32.03ZM40.78,39.58c-1.41,1.33,3.71,4.07,4.49,4.44,6.32,3.04,17.65,4.61,22.38-1.58,2.01-2.62,4.33-9.81-.24-11.17-8-2.38-6.05,10.87-12.06,12.05-5.8,1.14-9.22-2.92-14.56-3.74ZM93.49,57.46c-7.65-1.5-13.58,2.73-13.23,10.79.26,5.97,6.78,7.95,9.03,3.31,1.36-2.81-1.51-6.42,1.49-10.75,1.12-1.62,3.35-.78,2.71-3.35ZM25.47,72.75c-1.43-1.34-4.47-1.2-6.35-1.19-.43,9.68,1.3,22.12,11.3,26.33-5.09-5.69-.52-20.99-4.95-25.14ZM72.07,134.36c7.06,7.05,14.98-11.67,19.53-14.35.06-2.89-18.87-2.18-20.49,7.76-.3,1.87-.41,5.22.97,6.59ZM95.37,159.05c-3.11-.69-6.66-3.82-9.39-.49,2.58,3.28,4.09,4.01,8.09,2.45,1.26-.49,1.62.33,1.3-1.97ZM34.99,103.78c-4.72-3.11-10.96-8.42-12.51-10.65-4.09-5.87-4.73-12.7-4.3-19.69-5.17-.06-9.74,6.14-11.8,10.31-5.13,10.39-5.18,34.33,2.92,43.24,4.35,4.79,9.11,1.42,14.9,2.05,4.58.5,12.77,3.55,14.29,8.31,1.43,4.5-1.08,9.51-6.19,7.09-.61-.29-.72-1.25-.94-1.4.78.71,4.94.8,5.52-.13,2.86-10.64-12.87-14.11-20.58-12.08l8,3.74c2.03,2.06,4.11,4.07,6.14,6.13.72.73.76,2.2.91,2.34-4.51-3.2-14.15-15.48-19.62-7.84-5.36,7.49-1.66,29.04,1.86,37.35,4.53,10.72,15.8,15.5,27.03,14.55.72-5.04,11.79-17.58,15.48-9.94,2.19,4.53-1.46,5.59-4.03,7.28,3.11-1.69,3.79-8.9.52-8.47-3.75.5-9.02,6.56-9.93,10.35.36.32,8.7-1.49,9.41-1.88-3.56,2.33-5.65,3.22-10.13,3.98-3.81,4.82,5.93,15.77,8.11,16.63,14.62,6.22,29.09,8.58,44.01,2.08,7.42-4.47,5.4-9.9,6.97-13.74,3.55-8.65,2.76-23.71-3-31.36-2.06-1.22-13.28,4.63-13.07-4.41.14-6.01,11.4,1.53,12.64,1.3,8.14-1.53,3.54-33.92-3.15-38-8.06,1.48-9.48,15.27-17.79,16.02-9.72.89-9.27-12.51-1.72-16.65,1.91-1.05,6.45-2.42,8.65-2.63,7.53-.73,11.44,3.77,16.67-4.04,6.47-9.66,3.11-35.63.47-46.94-.47-2-1.79-8.74-4.77-8.21-.46.08-4.54,4.04-4.82,4.65-1.59,3.49,1.38,9.61-3.33,11.72-11.32,5.06-12.15-17.77.74-19.09,2.76-.28,5.17,1.61,7.75.32,3.24-1.6,6.23-11.54,6.58-15.08,2.19-21.93-6.2-41.35-31.45-38.01-14.06,1.86-29.79,21.04-33.44,34.14l16.19,5.13c5.12-1.18,3.98-6.97,6.76-10.26,5.76-6.83,15.35,1.09,8.07,10.88-5.61,7.55-18.11,5.56-25.43,1.88-2.64-1.33-4.35-4.46-6.82-4.11-13.94,4.15-16.76,17.05-17.65,29.97,18.41-2.3,3.59,27.75,16.94,30.11"/>
      <path class="cls-2" d="M29.61,97.81c7.62,8.2,20.07,12.16,30.59,7.56,4.89-1.92,9.71-5.21,9.86-10.68-.11-14.21-19.77-15.06-26.64-5.11-5.97,8.21-8.86,21.14-3.57,30.35,3.59,6.26,10.26,10.51,17.08,12.68,7.07,1.61,15.14.98,21.32-3.09,3.11-2.06,5.6-5.06,7.33-8.48-4.16,11.99-17.69,16.32-29.34,14.1-7.74-2.07-15.13-6.41-19.41-13.43-4.4-7.07-4.33-15.96-1.89-23.68,2.82-10.33,10.28-19.07,21.78-18.92,4.29-.09,8.66,1.17,11.85,4.12,4.92,4.31,6.6,12.34,2.64,17.81-4.86,6.47-14.18,8.87-21.9,8.23-7.85-.81-14.99-5.29-19.7-11.44h0Z"/>
    </g>
  </g>
</svg>