<?xml version="1.0" encoding="UTF-8"?>
<svg id="Capa_2" data-name="Capa 2" xmlns="http://www.w3.org/2000/svg" viewBox="0 0 586.44 112.63">
  <defs>
    <style>
      .cls-1 {
        stroke: #f4ba33;
        stroke-miterlimit: 10;
        stroke-width: 2px;
      }

      .cls-1, .cls-2 {
        fill: #f4ba33;
      }

      .cls-3 {
        fill: #234684;
      }
    </style>
  </defs>
  <g id="Capa_1-2" data-name="Capa 1">
    <g>
      <path class="cls-1" d="M52.63,104.67c-1.23,3.38-4.26,6.17-7.82,6.67-6.39.89-13.13-.31-18.86-3.21l-1.25-.79c-3.11-2.45-3.95-4.59-3.43-8.6-8.96.28-13.41-3.33-15.49-11.78-1.4-5.69-2.48-12.96,1.22-17.94-8.32-6.5-7.69-23.05,0-29.97.75-.68,2.46-1.25,2.73-1.7.3-.51.61-4.97.97-6.4.86-3.43,2.28-6.47,5.39-8.36.9-.54,3.53-1.36,3.64-1.52.17-.26.06-2.56.44-3.74.52-1.61,4.03-6.54,5.27-7.99,5.7-6.71,14.48-11.23,22.93-6.2,7.71,4.59,9.11,20.74,2.9,27.08,2.93,3.22,3.43,9.85,3.9,14.26.71,6.67,1.57,14.57-4.89,18.65,1.6,1.19,2.03,2.46,2.59,4.28,1.11,3.64,2.48,10.64,1.1,14.14-.42,1.08-2.08,2.35-2.11,2.69s1.74,2.79,2.09,3.69c2.03,5.19-.03,11.53-1.33,16.73ZM21.77,21.15c-.74.69,1.94,2.12,2.34,2.32,3.3,1.59,9.21,2.41,11.69-.83,1.05-1.37,2.26-5.12-.13-5.83-4.18-1.24-3.16,5.68-6.3,6.29s-4.81-1.53-7.6-1.95ZM49.29,30.48c-4-.78-7.09,1.42-6.91,5.64.14,3.12,3.54,4.15,4.71,1.73.71-1.47-.79-3.35.78-5.61.59-.85,1.75-.41,1.42-1.75ZM13.78,38.46c-.75-.7-2.34-.63-3.32-.62-.23,5.06.68,11.55,5.9,13.75-2.66-2.97-.27-10.96-2.58-13.13ZM38.11,70.63c3.68,3.68,7.82-6.1,10.2-7.49.03-1.51-9.85-1.14-10.7,4.05-.16.97-.21,2.73.5,3.44ZM50.28,83.53c-1.62-.36-3.48-2-4.9-.25,1.35,1.71,2.14,2.09,4.22,1.28.66-.26.85.17.68-1.03ZM18.75,54.67c-2.46-1.62-5.72-4.39-6.53-5.56-2.14-3.07-2.47-6.63-2.25-10.28-2.7-.03-5.09,3.21-6.16,5.38-2.68,5.43-2.7,17.93,1.52,22.58,2.27,2.5,4.76.74,7.78,1.07,2.39.26,6.67,1.85,7.46,4.34.75,2.35-.56,4.97-3.23,3.7-.32-.15-.38-.65-.49-.73.41.37,2.58.42,2.88-.07,1.5-5.55-6.72-7.37-10.74-6.31l4.18,1.95c1.06,1.07,2.15,2.13,3.21,3.2.37.38.4,1.15.48,1.22-2.36-1.67-7.39-8.08-10.24-4.09-2.8,3.91-.86,15.16.97,19.5,2.37,5.6,8.25,8.1,14.11,7.6.38-2.63,6.15-9.18,8.08-5.19,1.14,2.36-.76,2.92-2.1,3.8,1.62-.88,1.98-4.65.27-4.42-1.96.26-4.71,3.43-5.18,5.4.19.17,4.54-.78,4.91-.98-1.86,1.22-2.95,1.68-5.29,2.08-1.99,2.51,3.1,8.23,4.24,8.68,7.63,3.25,15.19,4.48,22.98,1.08,3.87-2.33,2.82-5.17,3.64-7.17,1.86-4.52,1.44-12.38-1.57-16.38-1.07-.64-6.93,2.42-6.82-2.3.07-3.14,5.95.8,6.6.68,4.25-.8,1.85-17.71-1.65-19.84-4.21.77-4.95,7.97-9.29,8.37-5.07.46-4.84-6.53-.9-8.69,1-.55,3.37-1.26,4.52-1.37,3.93-.38,5.97,1.97,8.71-2.11,3.38-5.04,1.62-18.6.25-24.51-.24-1.04-.93-4.56-2.49-4.29-.24.04-2.37,2.11-2.52,2.43-.83,1.82.72,5.02-1.74,6.12-5.91,2.64-6.34-9.28.39-9.97,1.44-.15,2.7.84,4.05.17,1.69-.84,3.25-6.02,3.44-7.87,1.14-11.45-3.24-21.59-16.42-19.85-7.34.97-15.56,10.99-17.46,17.83l8.45,2.68c2.67-.61,2.08-3.64,3.53-5.35,3.01-3.57,8.02.57,4.21,5.68-2.93,3.94-9.46,2.9-13.28.98-1.38-.69-2.27-2.33-3.56-2.15-7.28,2.17-8.75,8.9-9.22,15.65,9.61-1.2,1.88,14.49,8.85,15.72"/>
      <path class="cls-2" d="M15.94,51.55c2.92,2.72,6.67,4.51,10.39,4.49,4.4.06,11.87-2.9,9.47-8.3-2.25-4.49-9.28-3.7-11.9.09-1.8,2.31-2.87,5.65-3.08,8.63-1.22,12.63,18.27,18.34,24.34,7.21-.61,1.91-1.73,3.73-3.34,5.1-3.31,2.79-7.94,3.53-12.14,2.87-8.05-1.81-13.94-8.57-12.55-17.06.57-3.3,1.5-6.43,3.63-9.22,5.3-7.33,19.21-5.65,18.84,4.7-.63,6.2-8.07,8.53-13.41,7.92-4.3-.57-7.98-3.14-10.25-6.44h0Z"/>
    </g>
    <g>
      <g>
        <path class="cls-3" d="M121.08,66.35c-3.8,0-7.33-.62-10.58-1.86-3.26-1.24-6.08-3.01-8.48-5.31-2.39-2.3-4.26-4.99-5.59-8.09-1.34-3.1-2.01-6.49-2.01-10.2s.67-7.1,2.01-10.2c1.34-3.1,3.21-5.79,5.63-8.09,2.41-2.3,5.24-4.07,8.48-5.31,3.24-1.24,6.78-1.86,10.62-1.86,4.27,0,8.12.74,11.57,2.22,3.45,1.48,6.34,3.65,8.69,6.51l-7.32,6.75c-1.69-1.92-3.56-3.36-5.63-4.33-2.06-.96-4.32-1.44-6.75-1.44-2.3,0-4.41.38-6.33,1.13-1.92.75-3.59,1.83-4.99,3.24-1.41,1.41-2.5,3.07-3.27,4.99-.77,1.92-1.16,4.06-1.16,6.4s.39,4.48,1.16,6.4c.77,1.92,1.86,3.59,3.27,4.99,1.41,1.41,3.07,2.49,4.99,3.24,1.92.75,4.03,1.13,6.33,1.13,2.44,0,4.69-.48,6.75-1.44,2.06-.96,3.94-2.43,5.63-4.4l7.32,6.75c-2.35,2.86-5.24,5.04-8.69,6.54-3.45,1.5-7.33,2.25-11.64,2.25Z"/>
        <path class="cls-3" d="M164.41,65.79c-3.52,0-6.65-.8-9.39-2.39-2.74-1.59-4.92-3.8-6.54-6.61-1.62-2.81-2.43-6.02-2.43-9.64s.81-6.88,2.43-9.67c1.62-2.79,3.8-4.98,6.54-6.58,2.74-1.59,5.87-2.39,9.39-2.39s6.66.8,9.43,2.39c2.77,1.59,4.95,3.79,6.54,6.58,1.59,2.79,2.39,6.01,2.39,9.67s-.8,6.82-2.39,9.64c-1.59,2.81-3.77,5.02-6.54,6.61-2.77,1.59-5.91,2.39-9.43,2.39ZM164.41,62.62c2.81,0,5.35-.64,7.6-1.93,2.25-1.29,4.01-3.11,5.28-5.45,1.27-2.34,1.9-5.04,1.9-8.09s-.63-5.8-1.9-8.12c-1.27-2.32-3.02-4.13-5.28-5.42-2.25-1.29-4.78-1.94-7.6-1.94s-5.33.65-7.56,1.94c-2.23,1.29-3.99,3.09-5.28,5.42-1.29,2.32-1.94,5.03-1.94,8.12s.65,5.74,1.94,8.09c1.29,2.34,3.05,4.16,5.28,5.45,2.23,1.29,4.75,1.93,7.56,1.93Z"/>
        <path class="cls-3" d="M207.95,64.17c-3.47,0-6.58-.76-9.32-2.29-2.74-1.52-4.92-3.63-6.54-6.33-1.62-2.7-2.43-5.78-2.43-9.25s.81-6.61,2.43-9.28c1.62-2.67,3.8-4.76,6.54-6.26,2.74-1.5,5.85-2.25,9.32-2.25s6.32.72,8.97,2.15c2.65,1.43,4.75,3.47,6.3,6.12,1.55,2.65,2.32,5.83,2.32,9.53s-.77,6.82-2.32,9.5c-1.55,2.67-3.65,4.74-6.3,6.19-2.65,1.45-5.64,2.18-8.97,2.18ZM208.94,79.44c-3.33,0-6.5-.52-9.5-1.55-3-1.03-5.44-2.46-7.31-4.29l1.9-2.67c1.83,1.69,4.02,3,6.58,3.94,2.55.94,5.31,1.41,8.26,1.41,4.92,0,8.55-1.15,10.87-3.45,2.32-2.3,3.48-5.91,3.48-10.83v-10.2l.7-5.49-.56-5.49v-12.03h3.38v32.78c0,6.14-1.49,10.66-4.47,13.54-2.98,2.88-7.42,4.33-13.33,4.33ZM208.23,61.01c2.95,0,5.56-.62,7.81-1.86,2.25-1.24,4.02-2.98,5.31-5.21,1.29-2.23,1.94-4.77,1.94-7.63s-.65-5.46-1.94-7.67c-1.29-2.2-3.06-3.91-5.31-5.13-2.25-1.22-4.85-1.83-7.81-1.83s-5.43.61-7.7,1.83c-2.28,1.22-4.06,2.93-5.35,5.13-1.29,2.2-1.94,4.76-1.94,7.67s.65,5.4,1.94,7.63c1.29,2.23,3.07,3.96,5.35,5.21,2.27,1.24,4.84,1.86,7.7,1.86Z"/>
        <path class="cls-3" d="M240.03,65.51V16.27h9.43l29.05,35.45h-4.57V16.27h11.25v49.24h-9.35l-29.12-35.45h4.57v35.45h-11.25Z"/>
        <path class="cls-3" d="M313.67,65.86c-3.84,0-7.22-.81-10.13-2.43-2.91-1.62-5.18-3.84-6.82-6.68-1.64-2.84-2.46-6.08-2.46-9.74s.79-6.89,2.36-9.71c1.57-2.81,3.73-5.03,6.47-6.65,2.74-1.62,5.83-2.43,9.25-2.43s6.55.79,9.25,2.36c2.7,1.57,4.82,3.78,6.37,6.61,1.55,2.84,2.32,6.11,2.32,9.81,0,.24-.01.48-.04.74-.02.26-.04.53-.04.81h-32.15v-3.73h29.47l-1.97,1.48c0-2.67-.57-5.05-1.72-7.14-1.15-2.09-2.71-3.72-4.68-4.89-1.97-1.17-4.25-1.76-6.82-1.76s-4.81.59-6.82,1.76c-2.02,1.17-3.59,2.81-4.71,4.92s-1.69,4.53-1.69,7.25v.77c0,2.81.62,5.29,1.86,7.42,1.24,2.13,2.98,3.8,5.21,4.99,2.23,1.2,4.77,1.79,7.63,1.79,2.25,0,4.35-.4,6.29-1.2,1.95-.8,3.62-2.02,5.03-3.66l2.81,3.24c-1.64,1.97-3.69,3.47-6.16,4.5-2.46,1.03-5.17,1.55-8.12,1.55Z"/>
        <path class="cls-3" d="M355.73,65.86c-3.14,0-5.89-.59-8.23-1.76-2.35-1.17-4.16-2.93-5.45-5.28-1.29-2.34-1.94-5.28-1.94-8.79v-21.45h4.99v20.89c0,3.94.97,6.91,2.92,8.9,1.95,1.99,4.68,2.99,8.19,2.99,2.58,0,4.82-.53,6.72-1.58,1.9-1.06,3.35-2.59,4.36-4.61,1.01-2.02,1.51-4.43,1.51-7.25v-19.34h4.99v36.93h-4.78v-10.13l.77,1.83c-1.17,2.72-2.99,4.84-5.45,6.37-2.46,1.52-5.33,2.29-8.62,2.29Z"/>
        <path class="cls-3" d="M387.74,65.51V28.58h4.78v10.06l-.49-1.76c1.03-2.81,2.77-4.96,5.21-6.44s5.46-2.22,9.07-2.22v4.85c-.19,0-.38-.01-.56-.04-.19-.02-.38-.04-.56-.04-3.89,0-6.94,1.18-9.14,3.55-2.2,2.37-3.31,5.73-3.31,10.09v18.85h-4.99Z"/>
        <path class="cls-3" d="M430.08,65.86c-3.56,0-6.77-.81-9.6-2.43-2.84-1.62-5.08-3.84-6.72-6.68-1.64-2.84-2.46-6.08-2.46-9.74s.82-6.96,2.46-9.78c1.64-2.81,3.87-5.02,6.68-6.61,2.81-1.59,6.02-2.39,9.64-2.39s6.9.8,9.74,2.39c2.84,1.59,5.06,3.8,6.68,6.61,1.62,2.81,2.43,6.07,2.43,9.78s-.81,6.91-2.43,9.74c-1.62,2.84-3.86,5.06-6.72,6.68-2.86,1.62-6.1,2.43-9.71,2.43ZM430.08,61.43c2.67,0,5.04-.6,7.1-1.79,2.06-1.2,3.69-2.88,4.89-5.06,1.2-2.18,1.79-4.7,1.79-7.56s-.6-5.44-1.79-7.6c-1.19-2.16-2.82-3.83-4.89-5.03-2.06-1.2-4.41-1.79-7.03-1.79s-4.97.6-7.03,1.79c-2.06,1.2-3.71,2.87-4.92,5.03-1.22,2.16-1.83,4.69-1.83,7.6s.61,5.38,1.83,7.56c1.22,2.18,2.86,3.87,4.92,5.06,2.06,1.2,4.38,1.79,6.96,1.79Z"/>
        <path class="cls-3" d="M458.01,65.51V16.27h37.21v9.14h-25.88v30.95h26.8v9.14h-38.12ZM468.49,44.97v-8.86h23.7v8.86h-23.7Z"/>
        <path class="cls-3" d="M520.96,65.79c-3.42,0-6.51-.78-9.25-2.36-2.74-1.57-4.91-3.76-6.51-6.58-1.59-2.81-2.39-6.05-2.39-9.71s.8-6.95,2.39-9.74c1.59-2.79,3.76-4.97,6.51-6.54,2.74-1.57,5.83-2.36,9.25-2.36,3.24,0,6.16.75,8.76,2.25,2.6,1.5,4.67,3.63,6.19,6.4,1.52,2.77,2.29,6.1,2.29,9.99s-.75,7.1-2.25,9.92c-1.5,2.81-3.55,4.97-6.16,6.47-2.6,1.5-5.55,2.25-8.83,2.25ZM521.17,62.62c2.81,0,5.33-.64,7.56-1.93,2.23-1.29,3.99-3.11,5.28-5.45,1.29-2.34,1.94-5.04,1.94-8.09s-.65-5.8-1.94-8.12c-1.29-2.32-3.05-4.13-5.28-5.42-2.23-1.29-4.75-1.94-7.56-1.94s-5.33.65-7.56,1.94c-2.23,1.29-3.99,3.09-5.28,5.42-1.29,2.32-1.94,5.03-1.94,8.12s.65,5.74,1.94,8.09c1.29,2.34,3.05,4.16,5.28,5.45,2.23,1.29,4.75,1.93,7.56,1.93ZM536.01,65.51v-12.03l.63-6.4-.7-6.4V13.32h3.52v52.19h-3.45Z"/>
        <path class="cls-3" d="M569.21,65.79c-3.14,0-5.86-.57-8.16-1.72-2.3-1.15-4.07-2.88-5.31-5.21-1.24-2.32-1.86-5.19-1.86-8.62v-21.45h3.52v21.17c0,4.13,1.05,7.27,3.16,9.43,2.11,2.16,5.09,3.24,8.93,3.24,2.77,0,5.16-.59,7.17-1.76,2.02-1.17,3.56-2.82,4.64-4.96,1.08-2.13,1.62-4.65,1.62-7.56v-19.55h3.52v36.72h-3.38v-10.2l.49,1.2c-1.08,2.86-2.87,5.12-5.38,6.79-2.51,1.67-5.5,2.5-8.97,2.5Z"/>
      </g>
      <g>
        <path class="cls-3" d="M103.5,99.33c-1.3,0-2.51-.22-3.61-.66-1.11-.44-2.07-1.06-2.89-1.86s-1.45-1.74-1.9-2.81c-.45-1.08-.68-2.25-.68-3.54s.23-2.46.68-3.54c.45-1.08,1.09-2.01,1.91-2.81.83-.8,1.79-1.42,2.89-1.86,1.1-.44,2.3-.66,3.6-.66s2.39.2,3.46.6c1.08.4,2,1.01,2.76,1.83l-.8.82c-.75-.73-1.58-1.26-2.49-1.59-.91-.33-1.87-.49-2.89-.49-1.12,0-2.15.19-3.11.58-.96.38-1.79.93-2.5,1.63-.71.7-1.26,1.52-1.65,2.45-.39.93-.59,1.95-.59,3.05s.2,2.12.59,3.05c.39.93.94,1.75,1.65,2.45.71.7,1.54,1.24,2.5,1.63.96.38,2,.58,3.11.58,1.02,0,1.98-.16,2.89-.49.91-.33,1.74-.86,2.49-1.61l.8.83c-.77.82-1.69,1.43-2.76,1.84-1.08.41-2.23.61-3.46.61Z"/>
        <path class="cls-3" d="M117.86,99.3c-1.25,0-2.36-.28-3.34-.85-.98-.57-1.75-1.35-2.33-2.35-.58-1-.86-2.14-.86-3.43s.29-2.45.86-3.44c.57-.99,1.35-1.77,2.33-2.34.98-.57,2.09-.85,3.34-.85s2.37.28,3.35.85c.98.57,1.76,1.35,2.33,2.34.57.99.85,2.14.85,3.44s-.28,2.43-.85,3.43c-.57,1-1.34,1.78-2.33,2.35-.98.57-2.1.85-3.35.85ZM117.86,98.18c1,0,1.9-.23,2.7-.69.8-.46,1.43-1.1,1.88-1.94.45-.83.68-1.79.68-2.88s-.22-2.06-.68-2.89c-.45-.83-1.08-1.47-1.88-1.93-.8-.46-1.7-.69-2.7-.69s-1.9.23-2.69.69c-.79.46-1.42,1.1-1.88,1.93-.46.83-.69,1.79-.69,2.89s.23,2.04.69,2.88c.46.83,1.08,1.48,1.88,1.94.79.46,1.69.69,2.69.69Z"/>
        <path class="cls-3" d="M133.34,98.73c-1.23,0-2.34-.27-3.31-.81-.98-.54-1.75-1.29-2.33-2.25-.58-.96-.86-2.05-.86-3.29s.29-2.35.86-3.3c.57-.95,1.35-1.69,2.33-2.23.98-.53,2.08-.8,3.31-.8s2.25.25,3.19.76c.94.51,1.69,1.23,2.24,2.18.55.94.83,2.07.83,3.39s-.27,2.43-.83,3.38-1.3,1.68-2.24,2.2c-.94.52-2,.78-3.19.78ZM133.69,104.15c-1.18,0-2.31-.18-3.38-.55-1.07-.37-1.93-.87-2.6-1.53l.68-.95c.65.6,1.43,1.07,2.34,1.4.91.33,1.89.5,2.94.5,1.75,0,3.04-.41,3.86-1.23.83-.82,1.24-2.1,1.24-3.85v-3.63l.25-1.95-.2-1.95v-4.28h1.2v11.65c0,2.18-.53,3.79-1.59,4.81s-2.64,1.54-4.74,1.54ZM133.44,97.6c1.05,0,1.98-.22,2.78-.66.8-.44,1.43-1.06,1.89-1.85.46-.79.69-1.7.69-2.71s-.23-1.94-.69-2.73c-.46-.78-1.09-1.39-1.89-1.83-.8-.43-1.73-.65-2.78-.65s-1.93.22-2.74.65c-.81.43-1.44,1.04-1.9,1.83-.46.78-.69,1.69-.69,2.73s.23,1.92.69,2.71c.46.79,1.09,1.41,1.9,1.85.81.44,1.72.66,2.74.66Z"/>
        <path class="cls-3" d="M145.31,99.2v-13.05h1.2v3.63l-.17-.4c.4-1.03,1.06-1.85,1.98-2.44.92-.59,2.04-.89,3.38-.89,1.07,0,2,.2,2.79.61.79.41,1.41,1.03,1.85,1.85.44.83.66,1.85.66,3.06v7.63h-1.25v-7.53c0-1.47-.37-2.58-1.11-3.35s-1.78-1.15-3.11-1.15c-1.02,0-1.9.21-2.65.63-.75.42-1.32,1-1.71,1.75-.39.75-.59,1.65-.59,2.7v6.95h-1.25Z"/>
        <path class="cls-3" d="M162.77,82.97c-.28,0-.53-.1-.73-.3-.2-.2-.3-.43-.3-.7,0-.28.1-.53.3-.73.2-.2.44-.3.73-.3.3,0,.55.1.74.29.19.19.29.43.29.71s-.1.53-.29.73c-.19.2-.44.3-.74.3ZM162.14,99.2v-13.05h1.25v13.05h-1.25Z"/>
        <path class="cls-3" d="M166.19,87.22v-1.08h7.8v1.08h-7.8ZM172.15,99.3c-1.15,0-2.03-.32-2.64-.95-.61-.63-.91-1.5-.91-2.6v-12.45h1.25v12.33c0,.83.21,1.48.63,1.93.42.45,1.02.68,1.8.68s1.49-.24,2.03-.73l.53.88c-.33.32-.74.55-1.21.7-.48.15-.96.22-1.46.22Z"/>
        <path class="cls-3" d="M178.92,82.97c-.28,0-.53-.1-.73-.3-.2-.2-.3-.43-.3-.7,0-.28.1-.53.3-.73.2-.2.44-.3.73-.3.3,0,.55.1.74.29.19.19.29.43.29.71s-.1.53-.29.73c-.19.2-.44.3-.74.3ZM178.3,99.2v-13.05h1.25v13.05h-1.25Z"/>
        <path class="cls-3" d="M189.92,99.3c-1.25,0-2.36-.28-3.34-.85-.98-.57-1.75-1.35-2.33-2.35-.58-1-.86-2.14-.86-3.43s.29-2.45.86-3.44c.57-.99,1.35-1.77,2.33-2.34.98-.57,2.09-.85,3.34-.85s2.37.28,3.35.85c.98.57,1.76,1.35,2.33,2.34.57.99.85,2.14.85,3.44s-.28,2.43-.85,3.43c-.57,1-1.34,1.78-2.33,2.35-.98.57-2.1.85-3.35.85ZM189.92,98.18c1,0,1.9-.23,2.7-.69.8-.46,1.43-1.1,1.88-1.94.45-.83.68-1.79.68-2.88s-.22-2.06-.68-2.89c-.45-.83-1.08-1.47-1.88-1.93-.8-.46-1.7-.69-2.7-.69s-1.9.23-2.69.69c-.79.46-1.42,1.1-1.88,1.93-.46.83-.69,1.79-.69,2.89s.23,2.04.69,2.88c.46.83,1.08,1.48,1.88,1.94.79.46,1.69.69,2.69.69Z"/>
        <path class="cls-3" d="M200.33,99.2v-13.05h1.2v3.63l-.17-.4c.4-1.03,1.06-1.85,1.98-2.44.92-.59,2.04-.89,3.38-.89,1.07,0,2,.2,2.79.61.79.41,1.41,1.03,1.85,1.85.44.83.66,1.85.66,3.06v7.63h-1.25v-7.53c0-1.47-.37-2.58-1.11-3.35s-1.78-1.15-3.11-1.15c-1.02,0-1.9.21-2.65.63-.75.42-1.32,1-1.71,1.75-.39.75-.59,1.65-.59,2.7v6.95h-1.25Z"/>
        <path class="cls-3" d="M215.96,102.78l.98-4.23.12.73c-.32,0-.58-.1-.79-.3-.21-.2-.31-.45-.31-.75s.1-.55.31-.75c.21-.2.45-.3.74-.3.32,0,.57.1.76.31.19.21.29.45.29.74,0,.12,0,.23-.02.35-.02.12-.04.23-.07.35-.03.12-.07.27-.12.45l-.98,3.4h-.9Z"/>
        <path class="cls-3" d="M228.98,99.2v-17.5h1.08l12.48,15.93h-.58v-15.93h1.28v17.5h-1.05l-12.5-15.93h.58v15.93h-1.28Z"/>
        <path class="cls-3" d="M254.24,99.3c-1.32,0-2.48-.28-3.49-.85-1.01-.57-1.8-1.35-2.38-2.35-.58-1-.86-2.14-.86-3.43s.27-2.45.81-3.44c.54-.99,1.29-1.77,2.24-2.34.95-.57,2.02-.85,3.2-.85s2.25.27,3.19.83c.94.55,1.68,1.32,2.23,2.31.54.99.81,2.14.81,3.44,0,.05,0,.1-.01.16,0,.06-.01.12-.01.19h-11.53v-.98h10.85l-.5.48c.02-1.02-.2-1.93-.64-2.74-.44-.81-1.04-1.44-1.79-1.9-.75-.46-1.62-.69-2.6-.69s-1.83.23-2.59.69c-.76.46-1.35,1.09-1.79,1.9-.43.81-.65,1.73-.65,2.76v.22c0,1.07.24,2.01.71,2.84.47.83,1.13,1.47,1.96,1.93.83.46,1.78.69,2.85.69.83,0,1.61-.15,2.34-.45.72-.3,1.34-.76,1.84-1.38l.73.83c-.57.7-1.28,1.23-2.14,1.59-.86.36-1.79.54-2.79.54Z"/>
        <path class="cls-3" d="M269.17,99.3c-1.12,0-2.08-.2-2.9-.61-.82-.41-1.45-1.03-1.89-1.85-.44-.83-.66-1.85-.66-3.06v-7.63h1.25v7.53c0,1.47.37,2.58,1.13,3.35.75.77,1.81,1.15,3.18,1.15.98,0,1.83-.21,2.55-.63.72-.42,1.27-1,1.65-1.76.38-.76.58-1.65.58-2.69v-6.95h1.25v13.05h-1.2v-3.63l.17.43c-.38,1.02-1.02,1.82-1.91,2.41-.89.59-1.95.89-3.19.89Z"/>
        <path class="cls-3" d="M280.6,99.2v-13.05h1.2v3.58l-.12-.4c.37-1.05.98-1.86,1.85-2.43.87-.57,1.95-.85,3.25-.85v1.23s-.1,0-.15-.01c-.05,0-.1-.01-.15-.01-1.45,0-2.58.45-3.4,1.36-.82.91-1.23,2.17-1.23,3.79v6.8h-1.25Z"/>
        <path class="cls-3" d="M295.2,99.3c-1.25,0-2.36-.28-3.34-.85-.98-.57-1.75-1.35-2.33-2.35-.58-1-.86-2.14-.86-3.43s.29-2.45.86-3.44c.57-.99,1.35-1.77,2.33-2.34.98-.57,2.09-.85,3.34-.85s2.37.28,3.35.85c.98.57,1.76,1.35,2.33,2.34.57.99.85,2.14.85,3.44s-.28,2.43-.85,3.43c-.57,1-1.34,1.78-2.33,2.35-.98.57-2.1.85-3.35.85ZM295.2,98.18c1,0,1.9-.23,2.7-.69.8-.46,1.43-1.1,1.88-1.94.45-.83.68-1.79.68-2.88s-.22-2.06-.68-2.89c-.45-.83-1.08-1.47-1.88-1.93-.8-.46-1.7-.69-2.7-.69s-1.9.23-2.69.69c-.79.46-1.42,1.1-1.88,1.93-.46.83-.69,1.79-.69,2.89s.23,2.04.69,2.88c.46.83,1.08,1.48,1.88,1.94.79.46,1.69.69,2.69.69Z"/>
        <path class="cls-3" d="M308.9,99.3c-1.08,0-2.1-.16-3.04-.48-.94-.32-1.67-.72-2.19-1.2l.57-1c.5.43,1.17.8,2,1.11.83.31,1.73.46,2.7.46,1.37,0,2.35-.23,2.95-.68.6-.45.9-1.04.9-1.78,0-.53-.15-.95-.46-1.26-.31-.31-.72-.55-1.24-.71-.52-.17-1.08-.3-1.7-.41-.62-.11-1.23-.23-1.85-.36-.62-.13-1.18-.33-1.7-.58-.52-.25-.93-.6-1.24-1.04-.31-.44-.46-1.03-.46-1.76,0-.67.18-1.27.55-1.8.37-.53.92-.96,1.65-1.29.73-.33,1.65-.49,2.75-.49.82,0,1.64.12,2.46.35s1.5.54,2.01.93l-.57,1c-.55-.42-1.17-.72-1.85-.9-.68-.18-1.38-.28-2.08-.28-1.27,0-2.2.23-2.79.7-.59.47-.89,1.05-.89,1.75,0,.55.15.99.46,1.31.31.33.72.58,1.24.75s1.08.32,1.7.43c.62.11,1.23.23,1.85.36s1.18.32,1.7.56.93.58,1.24,1c.31.43.46,1,.46,1.71s-.2,1.34-.59,1.88c-.39.53-.97.95-1.74,1.25-.77.3-1.71.45-2.83.45Z"/>
        <path class="cls-3" d="M322.73,99.3c-1.27,0-2.4-.28-3.39-.85-.99-.57-1.78-1.35-2.35-2.35-.58-1-.86-2.14-.86-3.43s.29-2.45.86-3.45c.57-1,1.36-1.78,2.35-2.34.99-.56,2.12-.84,3.39-.84,1.05,0,2,.2,2.86.6.86.4,1.55,1,2.09,1.8l-.93.68c-.47-.67-1.05-1.16-1.75-1.48-.7-.32-1.46-.48-2.28-.48-1.02,0-1.93.23-2.74.69-.81.46-1.44,1.1-1.9,1.93-.46.83-.69,1.79-.69,2.89s.23,2.06.69,2.89c.46.83,1.09,1.47,1.9,1.93.81.46,1.72.69,2.74.69.82,0,1.58-.16,2.28-.48.7-.32,1.28-.81,1.75-1.48l.93.68c-.53.8-1.23,1.4-2.09,1.8-.86.4-1.81.6-2.86.6Z"/>
        <path class="cls-3" d="M331.83,82.97c-.28,0-.53-.1-.73-.3-.2-.2-.3-.43-.3-.7,0-.28.1-.53.3-.73.2-.2.44-.3.73-.3.3,0,.55.1.74.29.19.19.29.43.29.71s-.1.53-.29.73c-.19.2-.44.3-.74.3ZM331.21,99.2v-13.05h1.25v13.05h-1.25Z"/>
        <path class="cls-3" d="M343.04,99.3c-1.32,0-2.48-.28-3.49-.85-1.01-.57-1.8-1.35-2.38-2.35-.58-1-.86-2.14-.86-3.43s.27-2.45.81-3.44c.54-.99,1.29-1.77,2.24-2.34.95-.57,2.02-.85,3.2-.85s2.25.27,3.19.83c.94.55,1.68,1.32,2.23,2.31.54.99.81,2.14.81,3.44,0,.05,0,.1-.01.16,0,.06-.01.12-.01.19h-11.53v-.98h10.85l-.5.48c.02-1.02-.2-1.93-.64-2.74-.44-.81-1.04-1.44-1.79-1.9-.75-.46-1.62-.69-2.6-.69s-1.83.23-2.59.69c-.76.46-1.35,1.09-1.79,1.9-.43.81-.65,1.73-.65,2.76v.22c0,1.07.24,2.01.71,2.84.47.83,1.13,1.47,1.96,1.93.83.46,1.78.69,2.85.69.83,0,1.61-.15,2.34-.45.72-.3,1.34-.76,1.84-1.38l.73.83c-.57.7-1.28,1.23-2.14,1.59-.86.36-1.79.54-2.79.54Z"/>
        <path class="cls-3" d="M352.66,99.2v-13.05h1.2v3.63l-.17-.4c.4-1.03,1.06-1.85,1.98-2.44.92-.59,2.04-.89,3.38-.89,1.07,0,2,.2,2.79.61.79.41,1.41,1.03,1.85,1.85.44.83.66,1.85.66,3.06v7.63h-1.25v-7.53c0-1.47-.37-2.58-1.11-3.35s-1.78-1.15-3.11-1.15c-1.02,0-1.9.21-2.65.63-.75.42-1.32,1-1.71,1.75-.39.75-.59,1.65-.59,2.7v6.95h-1.25Z"/>
        <path class="cls-3" d="M374.67,99.3c-1.27,0-2.4-.28-3.39-.85-.99-.57-1.78-1.35-2.35-2.35-.58-1-.86-2.14-.86-3.43s.29-2.45.86-3.45c.57-1,1.36-1.78,2.35-2.34.99-.56,2.12-.84,3.39-.84,1.05,0,2,.2,2.86.6.86.4,1.55,1,2.09,1.8l-.93.68c-.47-.67-1.05-1.16-1.75-1.48-.7-.32-1.46-.48-2.28-.48-1.02,0-1.93.23-2.74.69-.81.46-1.44,1.1-1.9,1.93-.46.83-.69,1.79-.69,2.89s.23,2.06.69,2.89c.46.83,1.09,1.47,1.9,1.93.81.46,1.72.69,2.74.69.82,0,1.58-.16,2.28-.48.7-.32,1.28-.81,1.75-1.48l.93.68c-.53.8-1.23,1.4-2.09,1.8-.86.4-1.81.6-2.86.6Z"/>
        <path class="cls-3" d="M388.45,99.3c-1.32,0-2.48-.28-3.49-.85-1.01-.57-1.8-1.35-2.38-2.35-.58-1-.86-2.14-.86-3.43s.27-2.45.81-3.44c.54-.99,1.29-1.77,2.24-2.34.95-.57,2.02-.85,3.2-.85s2.25.27,3.19.83c.94.55,1.68,1.32,2.23,2.31.54.99.81,2.14.81,3.44,0,.05,0,.1-.01.16,0,.06-.01.12-.01.19h-11.53v-.98h10.85l-.5.48c.02-1.02-.2-1.93-.64-2.74-.44-.81-1.04-1.44-1.79-1.9-.75-.46-1.62-.69-2.6-.69s-1.83.23-2.59.69c-.76.46-1.35,1.09-1.79,1.9-.43.81-.65,1.73-.65,2.76v.22c0,1.07.24,2.01.71,2.84.47.83,1.13,1.47,1.96,1.93.83.46,1.78.69,2.85.69.83,0,1.61-.15,2.34-.45.72-.3,1.34-.76,1.84-1.38l.73.83c-.57.7-1.28,1.23-2.14,1.59-.86.36-1.79.54-2.79.54Z"/>
        <path class="cls-3" d="M396.87,102.78l.98-4.23.12.73c-.32,0-.58-.1-.79-.3-.21-.2-.31-.45-.31-.75s.1-.55.31-.75c.21-.2.45-.3.74-.3.32,0,.57.1.76.31.19.21.29.45.29.74,0,.12,0,.23-.02.35-.02.12-.04.23-.07.35-.03.12-.07.27-.12.45l-.98,3.4h-.9Z"/>
        <path class="cls-3" d="M413.03,99.3c-.97,0-1.8-.15-2.51-.46-.71-.31-1.25-.75-1.62-1.31-.38-.57-.56-1.22-.56-1.95,0-.67.15-1.27.46-1.81.31-.54.82-.98,1.54-1.33.72-.34,1.68-.51,2.88-.51h4.8v.98h-4.78c-1.35,0-2.3.25-2.84.75s-.81,1.13-.81,1.88c0,.83.32,1.5.95,2,.63.5,1.53.75,2.68.75s2.03-.25,2.79-.75,1.32-1.23,1.69-2.18l.35.85c-.35.95-.95,1.7-1.79,2.26-.84.56-1.91.84-3.21.84ZM417.73,99.2v-2.98l-.05-.45v-4.9c0-1.22-.33-2.14-.99-2.78-.66-.63-1.62-.95-2.89-.95-.9,0-1.74.15-2.51.46-.78.31-1.44.7-1.99,1.19l-.63-.9c.65-.58,1.43-1.04,2.35-1.36s1.88-.49,2.88-.49c1.62,0,2.86.41,3.73,1.23.87.82,1.3,2.03,1.3,3.65v8.28h-1.2Z"/>
        <path class="cls-3" d="M424.08,99.2v-13.05h1.2v3.63l-.17-.4c.4-1.03,1.06-1.85,1.98-2.44.92-.59,2.04-.89,3.38-.89,1.07,0,2,.2,2.79.61.79.41,1.41,1.03,1.85,1.85.44.83.66,1.85.66,3.06v7.63h-1.25v-7.53c0-1.47-.37-2.58-1.11-3.35s-1.78-1.15-3.11-1.15c-1.02,0-1.9.21-2.65.63-.75.42-1.32,1-1.71,1.75-.39.75-.59,1.65-.59,2.7v6.95h-1.25Z"/>
        <path class="cls-3" d="M445.94,99.3c-1.22,0-2.31-.28-3.29-.84-.98-.56-1.75-1.34-2.31-2.34-.57-1-.85-2.15-.85-3.45s.28-2.47.85-3.46c.57-.99,1.34-1.77,2.31-2.33.98-.56,2.07-.84,3.29-.84,1.15,0,2.19.27,3.11.8.93.53,1.66,1.29,2.2,2.28.54.98.81,2.17.81,3.55s-.27,2.53-.8,3.53c-.53,1-1.26,1.77-2.19,2.3s-1.97.8-3.14.8ZM446.01,98.18c1,0,1.9-.23,2.69-.69.79-.46,1.42-1.1,1.88-1.94.46-.83.69-1.79.69-2.88s-.23-2.06-.69-2.89c-.46-.83-1.08-1.47-1.88-1.93-.79-.46-1.69-.69-2.69-.69s-1.9.23-2.69.69c-.79.46-1.42,1.1-1.88,1.93-.46.83-.69,1.79-.69,2.89s.23,2.04.69,2.88c.46.83,1.08,1.48,1.88,1.94.79.46,1.69.69,2.69.69ZM451.29,99.2v-4.28l.22-2.28-.25-2.28v-9.73h1.25v18.55h-1.23Z"/>
        <path class="cls-3" d="M464.61,99.2v-17.5h11.7v1.15h-10.43v15.2h10.8v1.15h-12.08ZM465.74,90.87v-1.13h9.48v1.13h-9.48Z"/>
        <path class="cls-3" d="M485.74,99.3c-1.22,0-2.31-.28-3.29-.84-.98-.56-1.75-1.34-2.31-2.34-.57-1-.85-2.15-.85-3.45s.28-2.47.85-3.46c.57-.99,1.34-1.77,2.31-2.33.98-.56,2.07-.84,3.29-.84,1.15,0,2.19.27,3.11.8.93.53,1.66,1.29,2.2,2.28.54.98.81,2.17.81,3.55s-.27,2.53-.8,3.53c-.53,1-1.26,1.77-2.19,2.3s-1.97.8-3.14.8ZM485.82,98.18c1,0,1.9-.23,2.69-.69.79-.46,1.42-1.1,1.88-1.94.46-.83.69-1.79.69-2.88s-.23-2.06-.69-2.89c-.46-.83-1.08-1.47-1.88-1.93-.79-.46-1.69-.69-2.69-.69s-1.9.23-2.69.69c-.79.46-1.42,1.1-1.88,1.93-.46.83-.69,1.79-.69,2.89s.23,2.04.69,2.88c.46.83,1.08,1.48,1.88,1.94.79.46,1.69.69,2.69.69ZM491.1,99.2v-4.28l.22-2.28-.25-2.28v-9.73h1.25v18.55h-1.23Z"/>
        <path class="cls-3" d="M502.9,99.3c-1.12,0-2.08-.2-2.9-.61-.82-.41-1.45-1.03-1.89-1.85-.44-.83-.66-1.85-.66-3.06v-7.63h1.25v7.53c0,1.47.37,2.58,1.13,3.35.75.77,1.81,1.15,3.18,1.15.98,0,1.83-.21,2.55-.63.72-.42,1.27-1,1.65-1.76.38-.76.58-1.65.58-2.69v-6.95h1.25v13.05h-1.2v-3.63l.17.43c-.38,1.02-1.02,1.82-1.91,2.41-.89.59-1.95.89-3.19.89Z"/>
        <path class="cls-3" d="M519.5,99.3c-1.27,0-2.4-.28-3.39-.85-.99-.57-1.78-1.35-2.35-2.35-.58-1-.86-2.14-.86-3.43s.29-2.45.86-3.45c.57-1,1.36-1.78,2.35-2.34.99-.56,2.12-.84,3.39-.84,1.05,0,2,.2,2.86.6.86.4,1.55,1,2.09,1.8l-.93.68c-.47-.67-1.05-1.16-1.75-1.48-.7-.32-1.46-.48-2.28-.48-1.02,0-1.93.23-2.74.69-.81.46-1.44,1.1-1.9,1.93-.46.83-.69,1.79-.69,2.89s.23,2.06.69,2.89c.46.83,1.09,1.47,1.9,1.93.81.46,1.72.69,2.74.69.82,0,1.58-.16,2.28-.48.7-.32,1.28-.81,1.75-1.48l.93.68c-.53.8-1.23,1.4-2.09,1.8-.86.4-1.81.6-2.86.6Z"/>
        <path class="cls-3" d="M531.73,99.3c-.97,0-1.8-.15-2.51-.46-.71-.31-1.25-.75-1.62-1.31-.38-.57-.56-1.22-.56-1.95,0-.67.15-1.27.46-1.81.31-.54.82-.98,1.54-1.33.72-.34,1.68-.51,2.88-.51h4.8v.98h-4.78c-1.35,0-2.3.25-2.84.75s-.81,1.13-.81,1.88c0,.83.32,1.5.95,2,.63.5,1.53.75,2.68.75s2.03-.25,2.79-.75,1.32-1.23,1.69-2.18l.35.85c-.35.95-.95,1.7-1.79,2.26-.84.56-1.91.84-3.21.84ZM536.43,99.2v-2.98l-.05-.45v-4.9c0-1.22-.33-2.14-.99-2.78-.66-.63-1.62-.95-2.89-.95-.9,0-1.74.15-2.51.46-.78.31-1.44.7-1.99,1.19l-.63-.9c.65-.58,1.43-1.04,2.35-1.36s1.88-.49,2.88-.49c1.62,0,2.86.41,3.73,1.23.87.82,1.3,2.03,1.3,3.65v8.28h-1.2Z"/>
        <path class="cls-3" d="M540.63,87.22v-1.08h7.8v1.08h-7.8ZM546.58,99.3c-1.15,0-2.03-.32-2.64-.95-.61-.63-.91-1.5-.91-2.6v-12.45h1.25v12.33c0,.83.21,1.48.63,1.93.42.45,1.02.68,1.8.68s1.49-.24,2.03-.73l.53.88c-.33.32-.74.55-1.21.7-.48.15-.96.22-1.46.22Z"/>
        <path class="cls-3" d="M553.36,82.97c-.28,0-.53-.1-.73-.3-.2-.2-.3-.43-.3-.7,0-.28.1-.53.3-.73.2-.2.44-.3.73-.3.3,0,.55.1.74.29.19.19.29.43.29.71s-.1.53-.29.73c-.19.2-.44.3-.74.3ZM552.74,99.2v-13.05h1.25v13.05h-1.25Z"/>
        <path class="cls-3" d="M564.36,99.3c-1.25,0-2.36-.28-3.34-.85-.98-.57-1.75-1.35-2.33-2.35-.58-1-.86-2.14-.86-3.43s.29-2.45.86-3.44c.57-.99,1.35-1.77,2.33-2.34.98-.57,2.09-.85,3.34-.85s2.37.28,3.35.85c.98.57,1.76,1.35,2.33,2.34.57.99.85,2.14.85,3.44s-.28,2.43-.85,3.43c-.57,1-1.34,1.78-2.33,2.35-.98.57-2.1.85-3.35.85ZM564.36,98.18c1,0,1.9-.23,2.7-.69.8-.46,1.43-1.1,1.88-1.94.45-.83.68-1.79.68-2.88s-.22-2.06-.68-2.89c-.45-.83-1.08-1.47-1.88-1.93-.8-.46-1.7-.69-2.7-.69s-1.9.23-2.69.69c-.79.46-1.42,1.1-1.88,1.93-.46.83-.69,1.79-.69,2.89s.23,2.04.69,2.88c.46.83,1.08,1.48,1.88,1.94.79.46,1.69.69,2.69.69Z"/>
        <path class="cls-3" d="M574.77,99.2v-13.05h1.2v3.63l-.17-.4c.4-1.03,1.06-1.85,1.98-2.44.92-.59,2.04-.89,3.38-.89,1.07,0,2,.2,2.79.61.79.41,1.41,1.03,1.85,1.85.44.83.66,1.85.66,3.06v7.63h-1.25v-7.53c0-1.47-.37-2.58-1.11-3.35s-1.78-1.15-3.11-1.15c-1.02,0-1.9.21-2.65.63-.75.42-1.32,1-1.71,1.75-.39.75-.59,1.65-.59,2.7v6.95h-1.25Z"/>
      </g>
    </g>
  </g>
</svg>